<?xml version="1.0" encoding="UTF-8"?>
<!DOCTYPE svg PUBLIC "-//W3C//DTD SVG 1.1//EN" "http://www.w3.org/Graphics/SVG/1.1/DTD/svg11.dtd">
<!-- Creator: CorelDRAW X6 -->
<svg xmlns="http://www.w3.org/2000/svg" xml:space="preserve" width="33.8666mm" height="7.2808mm" version="1.1" style="shape-rendering:geometricPrecision; text-rendering:geometricPrecision; image-rendering:optimizeQuality; fill-rule:evenodd; clip-rule:evenodd"
viewBox="0 0 3584 770"
 xmlns:xlink="http://www.w3.org/1999/xlink">
 <defs>
  <style type="text/css">
   <![CDATA[
    .fil0 {fill:#373736}
    .fil1 {fill:#5B5B5B}
   ]]>
  </style>
 </defs>
 <g id="Layer_x0020_1">
  <metadata id="CorelCorpID_0Corel-Layer"/>
  <g id="_893428560">
   <path class="fil0" d="M1428 484c1,13 4,26 8,38 4,12 10,23 19,33 8,9 17,15 28,19 12,5 25,7 37,7 6,0 12,-1 18,-2 6,-1 12,-2 18,-4 6,-2 13,-5 19,-7 7,-3 13,-6 19,-10l10 -6 0 66 -3 2c-7,4 -14,7 -21,9 -7,2 -15,4 -22,6 -8,2 -16,2 -24,3 -9,1 -17,1 -26,1 -21,0 -41,-3 -60,-11 -18,-8 -34,-20 -46,-36 -14,-17 -23,-36 -29,-57 -7,-23 -9,-48 -9,-72 0,-23 3,-47 10,-69 6,-20 15,-38 28,-55 12,-15 27,-27 44,-36 17,-8 36,-12 56,-12 18,0 36,3 52,11 16,8 29,19 40,34 12,16 20,33 25,52 5,19 7,38 8,57 0,11 0,22 0,34l0 6 -199 0zm143 -46c-1,-16 -3,-30 -6,-42 -4,-12 -8,-23 -15,-31 -6,-9 -14,-15 -22,-19 -8,-4 -18,-6 -29,-6 -10,0 -20,2 -29,7 -9,4 -16,11 -23,20 -7,9 -13,20 -17,32 -4,12 -7,26 -8,41l148 -1zm-650 154c-2,3 -5,6 -8,9 -7,8 -15,14 -24,19 -9,5 -18,9 -28,11 -10,2 -21,3 -31,3 -13,0 -26,-2 -39,-6 -12,-4 -22,-12 -31,-21 -9,-9 -15,-20 -20,-32 -5,-13 -7,-27 -7,-41 0,-17 3,-33 10,-49 7,-15 17,-27 30,-36 14,-11 31,-18 48,-22 20,-5 43,-7 64,-7l31 -1c0,-2 0,-4 0,-5 0,-9 -2,-17 -4,-26 -3,-9 -7,-16 -13,-23 -5,-6 -12,-11 -20,-14 -9,-3 -18,-5 -27,-5 -6,0 -12,1 -18,2 -6,1 -12,3 -18,5 -7,2 -13,5 -19,8 -7,3 -13,7 -19,12l-10 7 -1 -66 4 -2c7,-3 15,-7 22,-10 8,-3 16,-5 24,-7 8,-2 16,-4 25,-5 9,-1 18,-1 27,-1 16,0 33,2 48,9 14,6 26,15 35,27 10,13 17,28 21,44 5,18 7,36 7,54 0,3 0,7 0,10l0 196 -59 0 0 -38zm-31 -127c-16,0 -30,2 -41,5 -12,3 -22,7 -31,13 -8,6 -14,12 -19,20 -4,8 -6,18 -6,28 0,8 1,15 4,22 2,6 6,12 11,17 5,5 10,9 17,12 6,3 13,4 20,4 12,0 23,-2 32,-6 10,-4 18,-11 25,-20 7,-9 13,-19 17,-30 4,-12 5,-25 5,-39l0 -25 -33 0zm952 -157l0 0 0 4 0 9 0 0 -2 48 -8 -4c-5,-2 -11,-5 -17,-7 -6,-2 -11,-4 -17,-6 -6,-2 -11,-3 -17,-3 -6,-1 -12,-1 -18,-1 -6,0 -12,1 -17,2 -5,1 -9,3 -13,6 -3,3 -6,6 -8,10 -2,4 -3,8 -3,12 0,4 1,8 2,11 2,4 4,8 7,11 4,5 10,9 15,12 9,6 18,11 27,16 13,7 26,15 38,24 9,7 18,15 25,24 6,8 10,17 13,26 3,10 4,20 4,31 0,14 -2,29 -8,42 -6,13 -14,24 -25,33 -11,9 -24,16 -38,20 -16,4 -32,6 -49,6 -7,0 -13,0 -20,-1 -6,-1 -13,-1 -19,-2 -7,-1 -13,-2 -19,-4 -7,-2 -13,-5 -19,-8l-4 -2 2 -66 9 6c6,4 12,7 18,10 6,2 12,5 18,7 6,2 12,3 18,4 6,1 11,2 17,2 7,0 15,-1 21,-3 6,-2 11,-5 15,-8 4,-4 8,-8 10,-13 2,-5 3,-11 3,-17 0,-4 -1,-9 -2,-13 -1,-4 -3,-8 -6,-11 -3,-4 -9,-9 -14,-12 -9,-6 -18,-11 -27,-17 -13,-7 -26,-15 -38,-24 -9,-7 -18,-14 -25,-23 -6,-8 -11,-16 -13,-25 -3,-9 -4,-19 -4,-28 0,-13 2,-25 8,-37 5,-11 13,-21 23,-29 10,-8 22,-14 35,-18 14,-4 29,-6 43,-6 6,0 12,0 18,1 6,0 12,1 18,2 6,1 12,2 19,4 5,1 10,3 15,5l7 0 0 2zm-1518 31c2,-3 4,-6 6,-8 7,-8 14,-16 23,-22 8,-6 17,-11 27,-14 10,-3 20,-4 30,-4 10,0 20,1 30,5 9,3 18,8 25,15 8,7 15,15 20,24 3,6 6,12 9,18 4,-6 8,-13 12,-18 7,-9 14,-17 23,-23 8,-6 18,-11 28,-14 10,-3 21,-5 31,-5 15,0 29,3 42,9 13,6 23,16 30,28 9,13 15,29 18,44 4,19 6,39 6,59l0 200 -64 0 0 -187c0,-13 -1,-27 -3,-40 -2,-9 -5,-19 -9,-27 -4,-6 -9,-12 -15,-15 -6,-4 -13,-5 -21,-5 -10,0 -19,2 -27,7 -9,5 -15,12 -21,20 -7,10 -11,22 -13,34 -3,15 -5,30 -5,46l0 169 -65 0 0 -187c0,-14 -1,-28 -3,-41 -2,-9 -5,-19 -9,-27 -4,-6 -8,-11 -15,-15 -7,-4 -15,-5 -23,-5 -9,0 -17,2 -25,7 -8,5 -15,13 -20,21 -6,10 -11,22 -14,33 -4,15 -5,30 -5,45l0 169 -64 0 0 -333 60 0 0 42zm-203 -42l65 0 0 333 -65 0 0 -333zm-13 -297l149 149 -109 109 -149 -149 109 -109zm1137 582c-2,3 -5,7 -7,10 -7,8 -14,16 -23,22 -8,6 -18,10 -28,13 -10,3 -20,4 -30,4 -17,0 -34,-4 -50,-12 -16,-8 -29,-20 -40,-35 -12,-16 -20,-35 -25,-54 -6,-22 -9,-44 -9,-67 0,-24 2,-48 8,-71 5,-20 13,-39 25,-55 11,-15 24,-27 40,-36 16,-8 33,-12 51,-12 11,0 22,1 32,4 10,3 19,7 28,13 9,6 17,13 24,22 2,3 4,6 6,9l0 -41 60 0 0 290c0,26 -2,53 -9,79 -5,21 -14,41 -28,58 -12,16 -28,28 -46,35 -20,8 -42,11 -63,11 -8,0 -17,0 -25,-1 -8,-1 -17,-2 -25,-4 -8,-2 -16,-4 -24,-7 -8,-3 -15,-6 -23,-9l-4 -2 5 -67 9 5c7,4 14,8 21,11 7,3 13,6 20,8 7,2 13,4 20,5 6,1 12,2 18,2 13,0 27,-2 39,-7 11,-5 21,-12 29,-22 9,-10 14,-22 18,-35 4,-16 6,-32 6,-48l0 -16zm-82 -233c-7,1 -14,3 -21,7 -9,5 -16,13 -21,22 -7,11 -12,23 -15,35 -4,15 -5,31 -5,47 0,16 1,31 5,46 3,12 8,25 15,35 6,9 13,16 22,22 8,5 18,7 27,7 10,0 20,-2 29,-7 9,-5 17,-13 23,-22 7,-11 12,-23 15,-35 4,-15 5,-30 5,-45 0,-16 -1,-33 -5,-49 -3,-13 -8,-25 -15,-36 -6,-9 -13,-17 -23,-22 -9,-5 -20,-7 -30,-7l-6 0 0 0zm-1056 -279l-39 39 79 79 39 -39 -79 -79z"/>
   <path class="fil1" d="M3281 472l-27 0c-14,0 -27,2 -40,5 -10,2 -20,6 -29,12 -7,5 -13,11 -17,18 -4,8 -6,16 -6,25 0,7 1,13 3,20 2,6 5,11 10,15 4,4 9,8 14,10 6,2 12,3 18,3 10,0 20,-2 30,-6 9,-4 16,-11 23,-18 7,-8 12,-18 15,-28 4,-12 5,-25 5,-38l0 -19zm-295 0l-27 0c-14,0 -27,2 -40,5 -10,2 -20,6 -29,12 -7,5 -13,11 -17,18 -4,8 -6,16 -6,25 0,7 1,13 3,20 2,6 5,11 10,15 4,4 9,8 14,10 6,2 12,3 18,3 10,0 20,-2 30,-6 9,-4 16,-11 23,-18 7,-8 12,-18 15,-28 4,-12 5,-25 5,-38l0 -19zm-558 0l-27 0c-14,0 -27,2 -40,5 -10,2 -20,6 -29,12 -7,5 -13,11 -17,18 -4,8 -6,16 -6,25 0,7 1,13 3,20 2,6 5,11 10,15 4,4 9,8 14,10 6,2 12,3 18,3 10,0 20,-2 30,-6 9,-4 16,-11 23,-18 7,-8 12,-18 15,-28 4,-12 5,-25 5,-38l0 -19zm-360 -123c-8,1 -16,3 -24,7 -10,5 -17,13 -23,22 -7,11 -12,23 -15,36 -4,16 -5,32 -5,49 0,16 1,32 5,47 3,13 8,25 15,36 6,9 14,17 23,22 9,5 18,7 28,7 10,0 19,-2 28,-7 9,-5 16,-13 22,-22 7,-11 12,-23 15,-35 4,-15 5,-31 5,-47 0,-17 -1,-33 -5,-50 -3,-13 -7,-26 -14,-37 -5,-9 -12,-17 -21,-23 -8,-5 -17,-7 -27,-7l-6 0 0 0zm1399 -18c6,-10 14,-20 22,-26 11,-8 23,-12 36,-12 20,0 39,8 55,18l4 3 -22 62 -7 -4c-10,-7 -21,-11 -34,-11 -10,0 -18,3 -26,9 -8,7 -14,16 -17,26 -6,20 -8,40 -8,61l0 173 -63 0 0 -330 58 0 0 31zm-182 261c-2,3 -5,6 -8,9 -7,8 -15,14 -24,19 -9,5 -18,9 -28,11 -10,2 -21,3 -31,3 -13,0 -26,-2 -39,-6 -12,-4 -22,-12 -31,-21 -9,-9 -16,-20 -20,-32 -5,-13 -7,-27 -7,-41 0,-17 3,-33 10,-49 7,-15 17,-27 30,-36 14,-11 31,-18 48,-22 20,-5 43,-7 64,-7l31 -1c0,-10 -1,-21 -4,-31 -3,-9 -7,-16 -13,-23 -5,-6 -12,-11 -20,-14 -9,-3 -18,-5 -27,-5 -6,0 -12,1 -18,2 -6,1 -12,3 -18,5 -7,2 -13,5 -19,8 -7,3 -13,7 -19,12l-10 7 -1 -66 4 -2c7,-3 15,-7 22,-10 8,-3 16,-5 24,-7 8,-2 16,-4 25,-5 9,-1 18,-1 27,-1 16,0 33,2 48,9 14,6 26,15 35,27 10,13 17,28 21,44 5,17 6,35 7,53l0 0 0 208 -59 0 0 -38zm-295 0c-2,3 -5,6 -8,9 -7,8 -15,14 -24,19 -9,5 -18,9 -28,11 -10,2 -21,3 -31,3 -13,0 -26,-2 -39,-6 -12,-4 -22,-12 -31,-21 -9,-9 -16,-20 -20,-32 -5,-13 -7,-27 -7,-41 0,-17 3,-33 10,-49 7,-15 17,-27 30,-36 14,-11 31,-18 48,-22 20,-5 43,-7 64,-7l31 -1c0,-10 -1,-21 -4,-31 -3,-9 -7,-16 -13,-23 -5,-6 -12,-11 -20,-14 -9,-3 -18,-5 -27,-5 -6,0 -12,1 -18,2 -6,1 -12,3 -18,5 -7,2 -13,5 -19,8 -7,3 -13,7 -19,12l-10 7 -1 -66 4 -2c7,-3 15,-7 22,-10 8,-3 16,-5 24,-7 8,-2 16,-4 25,-5 9,-1 18,-1 27,-1 16,0 33,2 48,9 14,6 26,15 35,27 10,13 17,28 21,44 5,17 6,35 7,53l0 0 0 208 -59 0 0 -38zm-375 -21l154 0 0 59 -230 0 0 -59 152 -215 -146 0 0 -59 224 0 0 58 -154 216zm-183 21c-2,3 -5,6 -8,9 -7,8 -15,14 -24,19 -9,5 -18,9 -28,11 -10,2 -21,3 -31,3 -13,0 -26,-2 -39,-6 -12,-4 -22,-12 -31,-21 -9,-9 -16,-20 -20,-32 -5,-13 -7,-27 -7,-41 0,-17 3,-33 10,-49 7,-15 17,-27 30,-36 14,-11 31,-18 48,-22 20,-5 43,-7 64,-7l31 -1c0,-10 -1,-21 -4,-31 -3,-9 -7,-16 -13,-23 -5,-6 -12,-11 -20,-14 -9,-3 -18,-5 -27,-5 -6,0 -12,1 -18,2 -6,1 -12,3 -18,5 -7,2 -13,5 -19,8 -7,3 -13,7 -19,12l-10 7 -1 -66 4 -2c7,-3 15,-7 22,-10 8,-3 16,-5 24,-7 8,-2 16,-4 25,-5 9,-1 18,-1 27,-1 16,0 33,2 48,9 14,6 26,15 35,27 10,13 17,28 21,44 5,17 6,35 7,53l0 0 0 208 -59 0 0 -38zm-432 -259c2,-3 4,-6 7,-8 7,-8 14,-14 23,-19 8,-5 17,-9 27,-12 10,-3 21,-4 31,-4 18,0 35,4 50,12 16,8 29,21 39,36 12,16 19,34 24,54 6,22 8,46 8,68 0,23 -2,47 -8,70 -5,20 -13,39 -25,56 -10,15 -23,28 -39,37 -15,8 -32,12 -49,12 -11,0 -21,-1 -32,-4 -10,-3 -20,-7 -29,-14 -9,-7 -17,-14 -24,-23 -3,-3 -5,-7 -8,-10l0 47 -60 0 0 -491 64 0 0 194z"/>
  </g>
 </g>
</svg>
